<?xml version="1.0" encoding="UTF-8"?>
<svg width="25px" height="24px" viewBox="0 0 25 24" version="1.1" xmlns="http://www.w3.org/2000/svg" xmlns:xlink="http://www.w3.org/1999/xlink">
    <!-- Generator: Sketch 43.1 (39012) - http://www.bohemiancoding.com/sketch -->
    <title>linkedin</title>
    <desc>Created with Sketch.</desc>
    <defs></defs>
    <g id="Page-1" stroke="none" stroke-width="1" fill="none" fill-rule="evenodd">
        <path d="M24.6438261,14.1467705 L24.6438261,23.06486 L19.4736818,23.06486 L19.4736818,14.7440503 C19.4736818,12.6537951 18.7258762,11.2272777 16.8544553,11.2272777 C15.4258628,11.2272777 14.5757064,12.1886459 14.2016915,13.1186078 C14.0652985,13.4510656 14.0301908,13.9138033 14.0301908,14.3791768 L14.0301908,23.06486 L8.85830798,23.06486 C8.85830798,23.06486 8.92796259,8.97213955 8.85830798,7.51202862 L14.0296861,7.51202862 L14.0296861,9.71658021 C14.0191986,9.7330685 14.0055706,9.75084669 13.9957,9.76683023 L14.0296861,9.76683023 L14.0296861,9.71658021 C14.7167542,8.65835731 15.9437858,7.14665037 18.6902637,7.14665037 C22.0929643,7.14659429 24.6438261,9.36954098 24.6438261,14.1467705 Z M3.44829833,0.0147922202 C1.67900393,0.0147922202 0.52173913,1.17530981 0.52173913,2.70142999 C0.52173913,4.19429317 1.64552261,5.39003064 3.37965321,5.39003064 L3.4142001,5.39003064 C5.21776098,5.39003064 6.33941332,4.1945175 6.33941332,2.70142999 C6.30542725,1.17530981 5.21776098,0.0147922202 3.44829833,0.0147922202 Z M0.828903623,23.06486 L5.99882358,23.06486 L5.99882358,7.51202862 L0.828903623,7.51202862 L0.828903623,23.06486 Z" id="linkedin" fill="#C1C1C1" fill-rule="nonzero"></path>
    </g>
</svg>