<?xml version="1.0" encoding="utf-8"?>
<svg xmlns="http://www.w3.org/2000/svg">
<symbol id="dribbble" viewBox="0 0 23 22"><title>dribbble</title><path d="M.889 11c0-1.995.491-3.835 1.474-5.522a10.922 10.922 0 0 1 4.004-4.004C8.054.491 9.894 0 11.889 0s3.835.491 5.522 1.474c1.663.96 3.045 2.34 4.004 4.004.983 1.687 1.474 3.527 1.474 5.522s-.491 3.835-1.474 5.522a10.922 10.922 0 0 1-4.004 4.004C15.724 21.509 13.884 22 11.889 22s-3.835-.491-5.522-1.474a10.922 10.922 0 0 1-4.004-4.004C1.38 14.835.889 12.995.889 11zm1.826 0c0 2.288.77 4.305 2.31 6.05.704-1.379 1.819-2.691 3.344-3.938 1.525-1.247 3.014-2.031 4.466-2.354-.22-.513-.433-.975-.638-1.386-2.523.807-5.25 1.21-8.184 1.21-.572 0-.997-.007-1.276-.022 0 .059-.004.132-.011.22-.007.073-.01.147-.011.22zM3 8.734c.323.03.8.044 1.43.044 2.45 0 4.774-.33 6.974-.99-1.115-1.98-2.34-3.63-3.674-4.95A8.931 8.931 0 0 0 4.75 5.28 9.393 9.393 0 0 0 3 8.734zm3.278 9.504c1.657 1.29 3.527 1.936 5.61 1.936a8.969 8.969 0 0 0 3.234-.616 32.305 32.305 0 0 0-1.716-7.282c-1.35.293-2.71 1.034-4.081 2.222-1.371 1.188-2.387 2.435-3.047 3.74zM9.645 2.134c1.29 1.335 2.486 3 3.586 4.994 1.995-.836 3.498-1.9 4.51-3.19-1.701-1.408-3.652-2.112-5.852-2.112-.748 0-1.496.103-2.244.308zm4.378 6.556c.22.47.47 1.063.748 1.782a37.757 37.757 0 0 1 3.542-.154c.91 0 1.811.022 2.706.066-.117-1.995-.836-3.77-2.156-5.324-.953 1.423-2.567 2.633-4.84 3.63zm1.298 3.322c.748 2.17 1.254 4.4 1.518 6.688a9.18 9.18 0 0 0 2.838-2.882 8.886 8.886 0 0 0 1.32-3.806c-.974-.07-1.95-.106-2.926-.11-.807 0-1.723.037-2.75.11z" fill="#EA4C89" fill-rule="nonzero"/>
</symbol>
<symbol id="github" viewBox="0 0 16 16"><title>github</title><path d="M8 0a8 8 0 0 0-2.53 15.59c.4.075.547-.172.547-.385 0-.19-.007-.693-.01-1.36-2.226.483-2.695-1.073-2.695-1.073-.364-.924-.89-1.17-.89-1.17-.725-.496.056-.486.056-.486.803.056 1.225.824 1.225.824.714 1.223 1.873.87 2.33.665.072-.517.278-.87.507-1.07-1.777-.2-3.644-.888-3.644-3.953 0-.873.31-1.587.823-2.147-.09-.202-.36-1.015.07-2.117 0 0 .67-.215 2.2.82a7.67 7.67 0 0 1 2-.27 7.67 7.67 0 0 1 2 .27c1.52-1.035 2.19-.82 2.19-.82.43 1.102.16 1.915.08 2.117a3.1 3.1 0 0 1 .82 2.147c0 3.073-1.87 3.75-3.65 3.947.28.24.54.73.54 1.48 0 1.07-.01 1.93-.01 2.19 0 .21.14.46.55.38A7.972 7.972 0 0 0 16 8a8 8 0 0 0-8-8" fill="#4078C0" fill-rule="evenodd"/>
</symbol>
<symbol id="linkedin" viewBox="0 0 25 24"><title>linkedin</title><path d="M24.644 14.147v8.918h-5.17v-8.32c0-2.091-.748-3.518-2.62-3.518-1.428 0-2.278.962-2.652 1.892-.137.332-.172.795-.172 1.26v8.686H8.858s.07-14.093 0-15.553h5.172v2.205l-.034.05h.034v-.05c.687-1.059 1.914-2.57 4.66-2.57 3.403 0 5.954 2.223 5.954 7zM3.448.015C1.68.015.522 1.175.522 2.7c0 1.493 1.124 2.689 2.858 2.689h.034c1.804 0 2.925-1.195 2.925-2.689C6.305 1.175 5.218.015 3.45.015zm-2.62 23.05h5.17V7.512H.829v15.553z" fill="#0077B5" fill-rule="nonzero"/>
</symbol>
<symbol id="triangle-outline" viewBox="0 0 806 661"><title>Triangle</title><defs><filter x="-3.3%" y="-4%" width="106.5%" height="108%" filterUnits="objectBoundingBox" id="a"><feGaussianBlur stdDeviation="8" in="SourceGraphic"/></filter></defs><path filter="url(#a)" d="M661 185l384 622H277z" transform="translate(-258 -167)" stroke-width="2" stroke="#979797" fill="none" fill-rule="evenodd"/>
</symbol></svg>