<svg class="icon dribbble-icon" viewBox="0 0 23 22" xmlns="http://www.w3.org/2000/svg"><path d="M.889 11c0-1.995.491-3.835 1.474-5.522a10.922 10.922 0 0 1 4.004-4.004C8.054.491 9.894 0 11.889 0s3.835.491 5.522 1.474c1.663.96 3.045 2.34 4.004 4.004.983 1.687 1.474 3.527 1.474 5.522s-.491 3.835-1.474 5.522a10.922 10.922 0 0 1-4.004 4.004C15.724 21.509 13.884 22 11.889 22s-3.835-.491-5.522-1.474a10.922 10.922 0 0 1-4.004-4.004C1.38 14.835.889 12.995.889 11zm1.826 0c0 2.288.77 4.305 2.31 6.05.704-1.379 1.819-2.691 3.344-3.938 1.525-1.247 3.014-2.031 4.466-2.354-.22-.513-.433-.975-.638-1.386-2.523.807-5.25 1.21-8.184 1.21-.572 0-.997-.007-1.276-.022 0 .059-.004.132-.011.22-.007.073-.01.147-.011.22zM3 8.734c.323.03.8.044 1.43.044 2.45 0 4.774-.33 6.974-.99-1.115-1.98-2.34-3.63-3.674-4.95A8.931 8.931 0 0 0 4.75 5.28 9.393 9.393 0 0 0 3 8.734zm3.278 9.504c1.657 1.29 3.527 1.936 5.61 1.936a8.969 8.969 0 0 0 3.234-.616 32.305 32.305 0 0 0-1.716-7.282c-1.35.293-2.71 1.034-4.081 2.222-1.371 1.188-2.387 2.435-3.047 3.74zM9.645 2.134c1.29 1.335 2.486 3 3.586 4.994 1.995-.836 3.498-1.9 4.51-3.19-1.701-1.408-3.652-2.112-5.852-2.112-.748 0-1.496.103-2.244.308zm4.378 6.556c.22.47.47 1.063.748 1.782a37.757 37.757 0 0 1 3.542-.154c.91 0 1.811.022 2.706.066-.117-1.995-.836-3.77-2.156-5.324-.953 1.423-2.567 2.633-4.84 3.63zm1.298 3.322c.748 2.17 1.254 4.4 1.518 6.688a9.18 9.18 0 0 0 2.838-2.882 8.886 8.886 0 0 0 1.32-3.806c-.974-.07-1.95-.106-2.926-.11-.807 0-1.723.037-2.75.11z" fill="#EA4C89" fill-rule="nonzero"/></svg>
