<svg class="icon linkedin-icon" viewBox="0 0 25 24" xmlns="http://www.w3.org/2000/svg"><path d="M24.644 14.147v8.918h-5.17v-8.32c0-2.091-.748-3.518-2.62-3.518-1.428 0-2.278.962-2.652 1.892-.137.332-.172.795-.172 1.26v8.686H8.858s.07-14.093 0-15.553h5.172v2.205l-.034.05h.034v-.05c.687-1.059 1.914-2.57 4.66-2.57 3.403 0 5.954 2.223 5.954 7zM3.448.015C1.68.015.522 1.175.522 2.7c0 1.493 1.124 2.689 2.858 2.689h.034c1.804 0 2.925-1.195 2.925-2.689C6.305 1.175 5.218.015 3.45.015zm-2.62 23.05h5.17V7.512H.829v15.553z" fill="#0077B5" fill-rule="nonzero"/></svg>
