<svg class="icon medium-icon" viewBox="0 0 195 195" xmlns="http://www.w3.org/2000/svg">
  <path d="M0 0h195v195H0V0zm46.534 65.216v57.9a6.663 6.663 0 0 1-1.773 5.747L31 145.554v2.201h39.019v-2.2l-13.76-16.692a6.908 6.908 0 0 1-1.897-5.747V73.042l34.249 74.713h3.975l29.417-74.713v59.55c0 1.59 0 1.896-1.04 2.935l-10.58 10.272V148h51.372v-2.201l-10.213-10.027a3.057 3.057 0 0 1-1.162-2.935V59.163a3.057 3.057 0 0 1 1.162-2.935L162 46.201V44h-36.205l-25.809 64.381L70.63 44H32.651v2.201l12.232 14.735a5.074 5.074 0 0 1 1.651 4.28z" fill-rule="nonzero" fill="#12100E"/>
</svg>
